<?xml version="1.0" encoding="utf-8"?>
<!-- Generator: Adobe Illustrator 23.0.1, SVG Export Plug-In . SVG Version: 6.00 Build 0)  -->
<svg version="1.1" id="Layer_1" xmlns="http://www.w3.org/2000/svg" xmlns:xlink="http://www.w3.org/1999/xlink" x="0px" y="0px"
	 viewBox="0 0 223 76.2" style="enable-background:new 0 0 223 76.2;" xml:space="preserve">
<style type="text/css">
	.st0{fill:#00AAE7;}
	.st1{fill:#60666C;}
	.st2{fill:#7D8187;}
	.st3{fill:#F58220;}
</style>
<path class="st0" d="M99.8,40.4c0-0.6-0.1-1.2-0.3-1.7c-0.2-0.5-0.5-1-0.8-1.4c-0.4-0.4-0.8-0.7-1.3-0.9c-0.5-0.2-1.1-0.3-1.7-0.3
	c-0.6,0-1.2,0.1-1.7,0.3c-0.5,0.2-0.9,0.5-1.3,0.9c-0.4,0.4-0.6,0.8-0.8,1.4c-0.2,0.5-0.3,1.1-0.3,1.7c0,0.6,0.1,1.2,0.3,1.7
	c0.2,0.5,0.5,1,0.8,1.4c0.4,0.4,0.8,0.7,1.3,0.9c0.5,0.2,1.1,0.3,1.7,0.3c0.6,0,1.2-0.1,1.7-0.3c0.5-0.2,0.9-0.5,1.3-0.9
	c0.4-0.4,0.6-0.8,0.8-1.4C99.7,41.5,99.8,41,99.8,40.4 M101,40.4c0,0.8-0.1,1.5-0.4,2.1c-0.3,0.6-0.6,1.2-1.1,1.7
	c-0.5,0.5-1,0.8-1.7,1.1c-0.7,0.3-1.4,0.4-2.2,0.4c-0.8,0-1.5-0.1-2.1-0.4c-0.7-0.3-1.2-0.6-1.7-1.1c-0.5-0.5-0.8-1-1.1-1.7
	c-0.3-0.7-0.4-1.4-0.4-2.1c0-0.8,0.1-1.5,0.4-2.1c0.3-0.6,0.6-1.2,1.1-1.7c0.5-0.5,1-0.8,1.7-1.1c0.6-0.3,1.4-0.4,2.1-0.4
	c0.8,0,1.5,0.1,2.2,0.4c0.7,0.3,1.2,0.6,1.7,1.1c0.5,0.5,0.8,1,1.1,1.7C100.9,38.9,101,39.6,101,40.4"/>
<path class="st0" d="M106,36.3h-2.5v9.1h-1.2v-9.1h-2.1v-1h2.1v-3c0-1.2,0.3-2,0.8-2.6c0.6-0.6,1.3-0.9,2.3-0.9c0.2,0,0.4,0,0.6,0
	c0.2,0,0.4,0.1,0.5,0.1l-0.2,1c-0.3-0.1-0.6-0.1-1-0.1c-0.4,0-0.7,0.1-1,0.2c-0.3,0.1-0.5,0.3-0.6,0.6c-0.1,0.2-0.2,0.5-0.3,0.8
	c-0.1,0.3-0.1,0.7-0.1,1v2.9h2.5V36.3z"/>
<polygon class="st1" points="43.7,8 55.2,8 80,67.2 70,67.3 49.4,17.8 38.9,42.8 28.2,45.5 "/>
<path class="st2" d="M100.2,12.8L97.9,19h4.5L100.2,12.8z M105,26l-1.4-3.5h-7L95.3,26h-4.7l7.5-18h4.2l7.5,18H105z"/>
<path class="st2" d="M122.7,25.7c-1.2,0.5-2.5,0.8-4,0.8c-1.4,0-2.7-0.2-3.8-0.7c-1.2-0.5-2.2-1.1-3.1-1.9c-0.9-0.8-1.5-1.8-2-3
	c-0.5-1.2-0.7-2.5-0.7-3.9c0-1.4,0.3-2.7,0.7-3.9c0.5-1.2,1.2-2.2,2.1-3c0.9-0.8,1.9-1.5,3.1-1.9c1.2-0.4,2.5-0.7,3.8-0.7
	c1.3,0,2.5,0.2,3.7,0.7s2.2,1.1,3,2l-2.9,2.9c-0.4-0.6-0.9-1-1.6-1.2c-0.7-0.3-1.3-0.4-2-0.4c-0.8,0-1.5,0.1-2.1,0.4
	c-0.6,0.3-1.2,0.7-1.6,1.2c-0.5,0.5-0.8,1.1-1.1,1.7c-0.3,0.7-0.4,1.4-0.4,2.2c0,0.8,0.1,1.6,0.4,2.2c0.3,0.7,0.6,1.3,1.1,1.7
	c0.4,0.5,1,0.9,1.6,1.1c0.6,0.3,1.3,0.4,2.1,0.4c0.9,0,1.6-0.2,2.3-0.5c0.6-0.3,1.2-0.8,1.5-1.3l3,2.8
	C124.9,24.4,123.9,25.2,122.7,25.7"/>
<path class="st2" d="M135.6,12.8l-2.3,6.2h4.5L135.6,12.8z M140.5,26l-1.4-3.5h-7l-1.3,3.5h-4.7l7.5-18h4.2l7.5,18H140.5z"/>
<path class="st2" d="M159.1,17c0-1-0.2-1.9-0.5-2.5c-0.3-0.7-0.8-1.2-1.3-1.6c-0.6-0.4-1.2-0.7-1.9-0.9c-0.7-0.2-1.4-0.3-2.2-0.3
	H151v10.5h2.1c0.8,0,1.5-0.1,2.2-0.3c0.7-0.2,1.4-0.5,1.9-0.9c0.5-0.4,1-0.9,1.3-1.6C158.9,18.8,159.1,18,159.1,17 M163.6,17
	c0,1.6-0.3,2.9-0.9,4.1c-0.6,1.1-1.4,2.1-2.3,2.8c-1,0.7-2,1.3-3.2,1.6c-1.2,0.3-2.4,0.5-3.7,0.5h-6.7V8h6.5c1.3,0,2.5,0.1,3.8,0.4
	c1.2,0.3,2.3,0.8,3.3,1.5c1,0.7,1.7,1.6,2.3,2.8C163.3,13.9,163.6,15.3,163.6,17"/>
<polygon class="st2" points="166,26 166,8 178,8 178,11.7 170.1,11.7 170.1,15.1 177.6,15.1 177.6,18.6 170.1,18.6 170.1,22.3 
	178.5,22.3 178.5,26 "/>
<polygon class="st2" points="197.7,26 197.8,13.3 197.7,13.3 193,26 190,26 185.4,13.3 185.4,13.3 185.5,26 181.4,26 181.4,8 
	187.6,8 191.6,19.6 191.7,19.6 195.7,8 201.9,8 201.9,26 "/>
<polygon class="st2" points="214.9,18.4 214.9,26 210.5,26 210.5,18.4 203.8,8 209,8 212.9,14.7 216.7,8 221.8,8 "/>
<path class="st0" d="M122.1,46.7c-1.2,0.3-2.5,0.4-3.8,0.4c-1.4,0-2.8-0.2-4-0.7c-1.2-0.5-2.3-1.1-3.1-1.9c-0.9-0.8-1.6-1.8-2-3
	c-0.5-1.2-0.7-2.4-0.7-3.9c0-1.4,0.3-2.7,0.7-3.9c0.5-1.2,1.2-2.2,2.1-3c0.9-0.8,1.9-1.5,3.1-1.9c1.2-0.4,2.5-0.7,3.8-0.7
	c1.4,0,2.7,0.2,4,0.6c1.2,0.4,2.2,1,3,1.7l-2.7,3.1c-0.4-0.5-1-0.9-1.7-1.2c-0.7-0.3-1.5-0.5-2.4-0.5c-0.8,0-1.5,0.1-2.1,0.4
	c-0.6,0.3-1.2,0.7-1.7,1.2c-0.5,0.5-0.8,1.1-1.1,1.8c-0.3,0.7-0.4,1.4-0.4,2.2c0,0.8,0.1,1.6,0.4,2.3c0.2,0.7,0.6,1.3,1.1,1.8
	c0.5,0.5,1,0.9,1.7,1.2c0.7,0.3,1.5,0.4,2.4,0.4c0.5,0,1,0,1.4-0.1c0.5-0.1,0.9-0.2,1.3-0.4v-3.3h-3.4V36h7.4v9.5
	C124.3,46,123.2,46.4,122.1,46.7"/>
<polygon class="st0" points="127.7,46.7 127.7,28.7 139.8,28.7 139.8,32.3 131.9,32.3 131.9,35.7 139.3,35.7 139.3,39.2 131.9,39.2 
	131.9,42.9 140.2,42.9 140.2,46.7 "/>
<polygon class="st0" points="153.5,46.7 146.3,34.9 146.2,34.9 146.3,46.7 142.1,46.7 142.1,28.7 147,28.7 154.3,40.4 154.3,40.4 
	154.2,28.7 158.4,28.7 158.4,46.7 "/>
<polygon class="st0" points="161.1,46.7 161.1,28.7 173.2,28.7 173.2,32.3 165.3,32.3 165.3,35.7 172.8,35.7 172.8,39.2 165.3,39.2 
	165.3,42.9 173.7,42.9 173.7,46.7 "/>
<path class="st0" d="M185,34.2c0-0.4-0.1-0.8-0.3-1c-0.2-0.3-0.4-0.5-0.7-0.6c-0.3-0.1-0.6-0.2-0.9-0.3c-0.3-0.1-0.7-0.1-1-0.1h-2.3
	v4.2h2.1c0.4,0,0.7,0,1.1-0.1c0.4-0.1,0.7-0.2,1-0.3c0.3-0.2,0.6-0.4,0.8-0.7C184.9,35,185,34.6,185,34.2 M185.2,46.7l-3.9-7.1h-1.5
	v7.1h-4.2v-18h6.9c0.9,0,1.7,0.1,2.5,0.3c0.8,0.2,1.6,0.5,2.2,0.9c0.7,0.4,1.2,1,1.6,1.7c0.4,0.7,0.6,1.6,0.6,2.6
	c0,1.2-0.3,2.2-1,3.1c-0.7,0.8-1.6,1.4-2.7,1.8l4.7,7.7H185.2z"/>
<path class="st0" d="M200.3,33.5l-2.3,6.2h4.5L200.3,33.5z M205.1,46.7l-1.4-3.5h-7l-1.3,3.5h-4.7l7.5-18h4.2l7.5,18H205.1z"/>
<polygon class="st0" points="210.4,46.7 210.4,28.7 214.8,28.7 214.8,42.9 221.7,42.9 221.7,46.7 "/>
<path class="st3" d="M102.9,58.2c0-1-0.2-1.9-0.5-2.5c-0.3-0.7-0.8-1.2-1.3-1.6c-0.6-0.4-1.2-0.7-1.9-0.9C98.5,53,97.8,53,97,53
	h-2.2v10.5h2.1c0.8,0,1.5-0.1,2.2-0.3c0.7-0.2,1.4-0.5,1.9-0.9c0.5-0.4,1-0.9,1.3-1.6C102.7,60,102.9,59.2,102.9,58.2 M107.4,58.2
	c0,1.6-0.3,2.9-0.9,4.1c-0.6,1.1-1.4,2.1-2.3,2.8c-1,0.7-2,1.3-3.2,1.6c-1.2,0.3-2.4,0.5-3.7,0.5h-6.7v-18h6.5
	c1.3,0,2.5,0.1,3.8,0.4c1.2,0.3,2.3,0.8,3.3,1.5c1,0.7,1.7,1.6,2.3,2.8C107.1,55.1,107.4,56.5,107.4,58.2"/>
<polygon class="st3" points="109,67.2 109,49.2 121.1,49.2 121.1,52.9 113.2,52.9 113.2,56.3 120.7,56.3 120.7,59.8 113.2,59.8 
	113.2,63.5 121.6,63.5 121.6,67.2 "/>
<polygon class="st3" points="134.6,67.2 127.4,55.5 127.3,55.5 127.4,67.2 123.2,67.2 123.2,49.2 128.1,49.2 135.3,61 135.4,61 
	135.3,49.2 139.5,49.2 139.5,67.2 "/>
<polygon class="st3" points="149.7,53 149.7,67.2 145.3,67.2 145.3,53 140.2,53 140.2,49.2 154.7,49.2 154.7,53 "/>
<rect x="155.4" y="49.2" class="st3" width="4.4" height="18"/>
<path class="st3" d="M171.8,53.9c-0.4-0.5-0.9-0.9-1.5-1.1c-0.6-0.3-1.2-0.4-1.7-0.4c-0.3,0-0.6,0-0.9,0.1c-0.3,0.1-0.6,0.1-0.8,0.3
	c-0.2,0.1-0.4,0.3-0.6,0.6c-0.2,0.2-0.2,0.5-0.2,0.9c0,0.3,0.1,0.6,0.2,0.8c0.1,0.2,0.3,0.4,0.6,0.5c0.2,0.2,0.5,0.3,0.9,0.4
	c0.3,0.1,0.7,0.3,1.1,0.4c0.6,0.2,1.2,0.4,1.9,0.7c0.7,0.2,1.3,0.6,1.8,1c0.5,0.4,1,0.9,1.3,1.5c0.4,0.6,0.5,1.4,0.5,2.2
	c0,1-0.2,1.9-0.6,2.7c-0.4,0.8-0.9,1.4-1.5,1.9c-0.6,0.5-1.4,0.9-2.2,1.1c-0.8,0.2-1.7,0.4-2.6,0.4c-1.3,0-2.5-0.2-3.7-0.7
	c-1.2-0.4-2.2-1.1-3-1.9l2.8-2.9c0.4,0.5,1,1,1.7,1.4c0.7,0.4,1.4,0.5,2.1,0.5c0.3,0,0.6,0,0.9-0.1c0.3-0.1,0.6-0.2,0.8-0.3
	c0.2-0.2,0.4-0.4,0.5-0.6c0.1-0.3,0.2-0.6,0.2-0.9c0-0.3-0.1-0.6-0.3-0.9c-0.2-0.2-0.4-0.5-0.7-0.6c-0.3-0.2-0.7-0.4-1.2-0.5
	c-0.5-0.2-1-0.3-1.6-0.5c-0.6-0.2-1.1-0.4-1.7-0.7c-0.5-0.3-1-0.6-1.5-1c-0.4-0.4-0.8-0.9-1-1.4c-0.3-0.6-0.4-1.3-0.4-2.1
	c0-1,0.2-1.9,0.6-2.6c0.4-0.7,0.9-1.3,1.6-1.8c0.7-0.5,1.4-0.8,2.2-1c0.8-0.2,1.7-0.3,2.5-0.3c1,0,2.1,0.2,3.1,0.6
	c1.1,0.4,2,0.9,2.8,1.7L171.8,53.9z"/>
<polygon class="st3" points="184.7,53 184.7,67.2 180.4,67.2 180.4,53 175.3,53 175.3,49.2 189.8,49.2 189.8,53 "/>
<path class="st3" d="M200,54.8c0-0.4-0.1-0.8-0.3-1c-0.2-0.3-0.4-0.5-0.7-0.6c-0.3-0.1-0.6-0.2-0.9-0.3c-0.3-0.1-0.7-0.1-1-0.1h-2.3
	v4.2h2.1c0.4,0,0.7,0,1.1-0.1c0.4-0.1,0.7-0.2,1-0.3c0.3-0.2,0.6-0.4,0.8-0.7C199.9,55.6,200,55.2,200,54.8 M200.1,67.2l-3.9-7.1
	h-1.5v7.1h-4.2v-18h6.9c0.9,0,1.7,0.1,2.5,0.3c0.8,0.2,1.6,0.5,2.2,0.9c0.7,0.4,1.2,1,1.6,1.7c0.4,0.7,0.6,1.6,0.6,2.6
	c0,1.2-0.3,2.2-1,3.1c-0.7,0.8-1.6,1.4-2.7,1.8l4.7,7.7H200.1z"/>
<polygon class="st3" points="214.8,59.6 214.8,67.2 210.5,67.2 210.5,59.6 203.7,49.2 209,49.2 212.8,55.9 216.6,49.2 221.7,49.2 
	"/>
<path class="st2" d="M1.3,67.2h9.4c0,0,20.6-35.3,70.4-27.9C81.1,39.4,32.2,22.2,1.3,67.2"/>
<path class="st0" d="M15.6,67.2c0,0,25.1-35.5,65.5-27.9c0,0-32.9-3.7-56.3,27.9H15.6z"/>
<path class="st3" d="M30.2,67.2c0,0,24.8-32.2,50.9-27.9c0,0-19.5-0.6-42.5,27.9H30.2z"/>
</svg>
